<svg xmlns="http://www.w3.org/2000/svg" width="84.603" height="84.606" viewBox="0 0 84.603 84.606"><defs><style>.a{fill:#5261ac;}</style></defs><g transform="translate(0.001 -0.001)"><g transform="translate(-0.001 0.001)"><path class="a" d="M79.962,14.1H29.906L26.663,3.371A4.77,4.77,0,0,0,20.752.2L13.571,2.312a4.794,4.794,0,0,0-2.083,1.261L3.4,11.953a4.75,4.75,0,0,0-1.213,2.288C1.36,18.048-.917,31.85,4.483,49.7S19.429,77.87,22.235,80.6a4.779,4.779,0,0,0,2.274,1.246l11.411,2.633A4.779,4.779,0,0,0,37,84.606a4.838,4.838,0,0,0,1.359-.2l3.973-1.172,3.2-.945A4.711,4.711,0,0,0,48.378,80a4.662,4.662,0,0,0,.365-3.589L46.956,70.5H79.962a5.64,5.64,0,0,0,5.64-5.64V19.74a5.64,5.64,0,0,0-5.64-5.64ZM57.754,41.878,82.609,18.8a2.768,2.768,0,0,1,.173.939V64.861a2.8,2.8,0,0,1-.157.887ZM79.962,16.92a2.8,2.8,0,0,1,.477.048l-29.523,27.4a2.82,2.82,0,0,1-3.835,0l-20.3-18.8,1.5-.441a4.725,4.725,0,0,0,2.841-2.3,4.653,4.653,0,0,0,.362-3.586l-.709-2.329ZM23.186,58.137a34.315,34.315,0,0,1-6.365-12.094A31.792,31.792,0,0,1,16.1,28.818a.252.252,0,0,1,.173-.155L23.619,26.5,40.178,41.823Zm22.7,20.517a1.913,1.913,0,0,1-1.156.931l-1.87.551L39.428,68.774a1.41,1.41,0,1,0-2.7.816l3.435,11.345-2.6.767a1.974,1.974,0,0,1-1.007.031L25.143,79.1a1.974,1.974,0,0,1-.936-.516c-2.679-2.616-11.826-12.49-17.025-29.7S4.152,18.471,4.94,14.836a1.936,1.936,0,0,1,.494-.928l8.082-8.376a1.96,1.96,0,0,1,.846-.516l2.624-.773L20.419,15.6a1.41,1.41,0,0,0,1.349,1,1.354,1.354,0,0,0,.408-.061,1.41,1.41,0,0,0,.942-1.757L19.7,3.447,21.549,2.9a1.95,1.95,0,0,1,2.424,1.285l4.794,15.877a1.853,1.853,0,0,1-.141,1.43,1.925,1.925,0,0,1-1.156.932l-1.871.551-.554-1.833a1.41,1.41,0,0,0-2.7.815l.549,1.816L15.48,25.96a3.075,3.075,0,0,0-2.1,2.115,34.656,34.656,0,0,0,.74,18.777,34.993,34.993,0,0,0,9.8,16.1,3.063,3.063,0,0,0,2.912.635L34.264,61.4l.554,1.833a1.41,1.41,0,1,0,2.7-.816L36.969,60.6l1.851-.546a1.956,1.956,0,0,1,2.425,1.285L46.04,77.216a1.853,1.853,0,0,1-.145,1.438ZM46.1,67.682l-2.16-7.15a4.773,4.773,0,0,0-5.922-3.174L26.035,60.891a.282.282,0,0,1-.251-.045c-.2-.173-.423-.389-.684-.635L42.252,43.742l2.91,2.695a5.66,5.66,0,0,0,7.673,0l2.848-2.645,24.827,23.83a2.8,2.8,0,0,1-.549.061Z" transform="translate(-0.999 -0.001)"/><path class="a" d="M27.41,16.82H49.971a1.41,1.41,0,0,0,0-2.82H27.41a1.41,1.41,0,0,0,0,2.82Z" transform="translate(9.252 5.74)"/><path class="a" d="M56.41,22A1.41,1.41,0,0,0,55,23.41V43.151a1.41,1.41,0,1,0,2.82,0V23.41A1.41,1.41,0,0,0,56.41,22Z" transform="translate(21.143 9.02)"/></g></g></svg>