<svg xmlns="http://www.w3.org/2000/svg" width="60.002" height="60" viewBox="0 0 60.002 60"><defs><style>.a{fill:#6c2643;}</style></defs><g transform="translate(0.001 0)"><path class="a" d="M30,52a4,4,0,1,1,4-4A4,4,0,0,1,30,52Zm0-6a2,2,0,1,0,2,2A2,2,0,0,0,30,46Z"/><path class="a" d="M46,60H14a1,1,0,0,1-1-1V37a1,1,0,0,1,1-1H46a1,1,0,0,1,1,1V59A1,1,0,0,1,46,60ZM15,58H45V38H15Z"/><path class="a" d="M38,56H22a1,1,0,0,1-1-1,3,3,0,0,0-3-3,1,1,0,0,1-1-1V45a1,1,0,0,1,1-1,3,3,0,0,0,3-3,1,1,0,0,1,1-1H38a1,1,0,0,1,1,1,3,3,0,0,0,3,3,1,1,0,0,1,1,1v6a1,1,0,0,1-1,1,3,3,0,0,0-3,3A1,1,0,0,1,38,56ZM22.9,54H37.1A5.013,5.013,0,0,1,41,50.1V45.9A5.013,5.013,0,0,1,37.1,42H22.9A5.013,5.013,0,0,1,19,45.9v4.2A5.013,5.013,0,0,1,22.9,54Z"/><path class="a" d="M42,28H20a1,1,0,0,1-1-1V10a1,1,0,0,1,.367-.774l11-9a1,1,0,0,1,1.267,0l11,9A1,1,0,0,1,43,10V27A1,1,0,0,1,42,28ZM21,26H41V10.474L31,2.292,21,10.474Z"/><path class="a" d="M34,28H28a1,1,0,0,1-1-1V17a1,1,0,0,1,1-1h6a1,1,0,0,1,1,1V27A1,1,0,0,1,34,28Zm-5-2h4V18H29Z"/><path class="a" d="M15,15a1,1,0,0,1-.63-1.776l16-13a1,1,0,0,1,1.26,1.553l-16,13A1,1,0,0,1,15,15Z"/><path class="a" d="M47,15a.992.992,0,0,1-.63-.224l-16-13A1,1,0,0,1,31.629.223l16,13A1,1,0,0,1,47,15Z"/><path class="a" d="M54,46a1,1,0,0,1-.713-1.7A16.014,16.014,0,0,0,57.995,32.78a13.462,13.462,0,0,0-4.362-9.67L51.282,20.7A1,1,0,0,1,52.716,19.3l2.31,2.373A15.4,15.4,0,0,1,60,32.729,18.024,18.024,0,0,1,54.713,45.7,1,1,0,0,1,54,46Z"/><path class="a" d="M58,22a.946.946,0,0,1-.166-.014l-6-1a1,1,0,1,1,.329-1.972l6,1A1,1,0,0,1,58,22Z"/><path class="a" d="M53,28a1,1,0,0,1-.988-.858l-1-7a1,1,0,1,1,1.979-.283l1,7a1,1,0,0,1-.848,1.132A1.169,1.169,0,0,1,53,28Z"/><path class="a" d="M8,46a1,1,0,0,1-.717-.3l-2.31-2.373A15.4,15.4,0,0,1,0,32.271,18.024,18.024,0,0,1,5.286,19.3a1,1,0,0,1,1.426,1.4A16.014,16.014,0,0,0,2,32.219a13.462,13.462,0,0,0,4.362,9.67L8.717,44.3A1,1,0,0,1,8,46Z"/><path class="a" d="M8,46a.946.946,0,0,1-.166-.014l-6-1a1,1,0,1,1,.329-1.972l6,1A1,1,0,0,1,8,46Z"/><path class="a" d="M8,46a1,1,0,0,1-.988-.858l-1-7a1,1,0,1,1,1.979-.283l1,7a1,1,0,0,1-.848,1.132A1.155,1.155,0,0,1,8,46Z"/><path class="a" d="M45,28H17a1,1,0,0,1,0-2H45a1,1,0,0,1,0,2Z"/><path class="a" d="M33,13H29a1,1,0,0,1-1-1V8a1,1,0,0,1,1-1h4a1,1,0,0,1,1,1v4A1,1,0,0,1,33,13Zm-3-2h2V9H30Z"/></g></svg>