<svg xmlns="http://www.w3.org/2000/svg" width="54.523" height="54.523" viewBox="0 0 54.523 54.523"><defs><style>.a{fill:#6c2643;}</style></defs><g transform="translate(0 -0.001)"><path class="a" d="M54.212,42.476l-5.2-5.2A20.858,20.858,0,0,0,46.6,29.583,1.065,1.065,0,0,0,44.726,30.6a18.657,18.657,0,0,1,1.8,4.734c-3.418-2.5-4.948-3.217-6.146-2.645-1.235.589-1.284,2.249-1.324,3.582l-.211,7.011-.211,4.825a1.319,1.319,0,1,1-2.636-.115l.073-1.676c0-.011,0-.021,0-.032s0-.011,0-.016l.136-3.108a1.065,1.065,0,0,0-2.128-.093l-.137,3.14a1.32,1.32,0,0,1-2.637-.131l.073-1.676c0-.011,0-.022,0-.032s0-.01,0-.016l.136-3.108a1.065,1.065,0,0,0-2.128-.093l-.137,3.14a1.32,1.32,0,0,1-2.637-.131l.074-1.686c0-.009,0-.017,0-.026s0-.008,0-.013l.136-3.112a1.065,1.065,0,0,0-2.128-.093l-.137,3.137a1.324,1.324,0,0,1-1.376,1.249,1.326,1.326,0,0,1-1.259-1.378L22,40.527l.139-3.12a12.079,12.079,0,0,0-.33-3.3,3.449,3.449,0,0,0-1.3-6.447,3.439,3.439,0,0,0-1.756-3.679,3.458,3.458,0,0,0-1.26-.393,3.456,3.456,0,0,0-3.014-4.072A3.452,3.452,0,0,0,10.1,15.565l-2.5.754L2.571,11.293l8.721-8.721L14.68,5.958a3.9,3.9,0,0,0,.779,7.149l6.131,1.839a3.761,3.761,0,0,1,2.4,1.381l.381.383,2.571,2.571a6.463,6.463,0,0,0,4.825,2.257,13.275,13.275,0,0,1,7.037,2.509A1.065,1.065,0,0,0,40,22.284a18.1,18.1,0,0,0-3.861-2.01L29.3,11.023c-.145-.2-.274-.38-.4-.557a5.1,5.1,0,0,0-3.137-2.423L17.7,5.628a3.917,3.917,0,0,0-.444-.1L12.045.312a1.065,1.065,0,0,0-1.506,0L.312,10.54a1.065,1.065,0,0,0,0,1.506l4.972,4.974a3.45,3.45,0,0,0,.8,6.672,3.445,3.445,0,0,0,1.759,3.682,3.454,3.454,0,0,0,1.256.391,3.44,3.44,0,0,0,3.015,4.07,3.448,3.448,0,0,0,4.382,3.95l3.28-.989a9.869,9.869,0,0,1,.23,2.518l-.139,3.121L19.8,42.147a3.456,3.456,0,0,0,3.293,3.6q.077,0,.152,0a3.426,3.426,0,0,0,1.457-.324,3.465,3.465,0,0,0,3.081,2.238q.077,0,.153,0a3.418,3.418,0,0,0,1.456-.324,3.456,3.456,0,0,0,3.082,2.241q.077,0,.153,0a3.426,3.426,0,0,0,1.457-.325A3.456,3.456,0,0,0,37.163,51.5q.077,0,.153,0a3.408,3.408,0,0,0,1.884-.565l3.276,3.276a1.065,1.065,0,0,0,1.506,0l10.23-10.23a1.065,1.065,0,0,0,0-1.506ZM14.878,8.858A1.784,1.784,0,0,1,17.09,7.667l8.062,2.415a3.084,3.084,0,0,1,2.007,1.609c.126.179.268.381.428.6l5.318,7.193a11.108,11.108,0,0,0-1.11-.073h0a4.37,4.37,0,0,1-3.343-1.632L25.879,15.2c-.138-.138-.261-.262-.374-.375A5.619,5.619,0,0,0,22.2,12.9L16.07,11.066a1.783,1.783,0,0,1-1.192-2.208ZM6.841,21.526A1.32,1.32,0,0,1,6.078,19L10.711,17.6a1.312,1.312,0,0,1,.378-.056,1.325,1.325,0,0,1,.627.159,1.305,1.305,0,0,1,.64.779,1.322,1.322,0,0,1-.883,1.645ZM9.855,25.6a1.319,1.319,0,0,1-.761-2.525l.024-.009,2.97-.894h0l1.637-.494a1.32,1.32,0,0,1,.779,2.522l-3.011.908Zm3.013,4.072a1.318,1.318,0,1,1-.757-2.525l4.632-1.4a1.307,1.307,0,0,1,.376-.056,1.323,1.323,0,0,1,.628.16,1.32,1.32,0,0,1-.243,2.423h0ZM21.3,31.708a1.309,1.309,0,0,1-.78.64l-4.633,1.4a1.32,1.32,0,0,1-.764-2.527l.024-.009,4.61-1.389A1.326,1.326,0,0,1,21.4,30.7,1.31,1.31,0,0,1,21.3,31.708ZM43.229,51.953l-2.688-2.688a3.446,3.446,0,0,0,.217-1.063l.211-4.833s0-.01,0-.014l.211-7.019a7.383,7.383,0,0,1,.166-1.678,6.07,6.07,0,0,1,1.572.784c.937.583,2.217,1.495,4.12,2.936a4.549,4.549,0,0,1,.468.408l4.445,4.443Z" transform="translate(0 0)"/><path class="a" d="M393.188,237.942a1.065,1.065,0,1,0,0-1.509,1.058,1.058,0,0,0,0,1.509Z" transform="translate(-351.035 -210.976)"/></g></svg>