<svg xmlns="http://www.w3.org/2000/svg" width="46" height="42.84" viewBox="0 0 46 42.84"><defs><style>.a{fill:#6c2643;}</style></defs><g transform="translate(0 -17.584)"><g transform="translate(0 17.584)"><g transform="translate(0 0)"><path class="a" d="M44.227,36.494H31.5V34.971a2.433,2.433,0,0,0-4.866,0v1.523H13.9a1.776,1.776,0,0,0-1.764,1.592,1.8,1.8,0,0,0-.009.181V49.85A1.775,1.775,0,0,0,13.9,51.624h2.147v4.829H6.8V33.038l15.48-10.3,15.48,10.3v1.87a.658.658,0,0,0,1.316,0v-.995l1.995,1.327a2.243,2.243,0,1,0,2.485-3.735L22.914,17.777a1.148,1.148,0,0,0-1.275,0L9.664,25.743a.658.658,0,1,0,.729,1.1l11.883-7.9L42.823,32.6a.927.927,0,0,1,0,1.543.925.925,0,0,1-1.027,0L22.914,21.584a1.148,1.148,0,0,0-1.275,0L2.756,34.145a.925.925,0,0,1-1.027,0,.927.927,0,0,1,0-1.543l5.259-3.5a.658.658,0,1,0-.729-1.1L1,31.506a2.243,2.243,0,1,0,2.485,3.735L5.48,33.914V56.453H2.958a1.986,1.986,0,0,0,0,3.971H41.595a1.986,1.986,0,1,0,0-3.971H39.073V53.209a.658.658,0,0,0-1.316,0v3.244H31.5V51.624H44.227A1.775,1.775,0,0,0,46,49.85V38.268A1.775,1.775,0,0,0,44.227,36.494ZM27.947,34.971a1.117,1.117,0,0,1,2.234,0v1.523H27.947ZM26.631,59.108H2.958a.669.669,0,1,1,0-1.339H26.631Zm0-2.655H17.365V51.624h9.266Zm3.55,2.655H27.947V51.624h2.234Zm11.414-1.339h0a.669.669,0,0,1,0,1.339H31.5V57.769h10.1Zm2.632-7.462H13.9a.457.457,0,0,1-.457-.457V38.268a.457.457,0,0,1,.457-.457H44.227a.457.457,0,0,1,.457.457V49.85h0A.457.457,0,0,1,44.227,50.307Z" transform="translate(0 -17.584)"/></g></g><g transform="translate(18.13 25.638)"><path class="a" d="M205.945,107.233a4.146,4.146,0,1,0,4.146,4.146A4.151,4.151,0,0,0,205.945,107.233Zm-.658,6.9a2.839,2.839,0,0,1-2.094-2.1h2.094Zm0-3.413h-2.093a2.838,2.838,0,0,1,2.093-2.091Zm1.316-2.091a2.838,2.838,0,0,1,2.093,2.091H206.6Zm0,5.5v-2.1H208.7A2.838,2.838,0,0,1,206.6,114.131Z" transform="translate(-201.799 -107.233)"/></g><g transform="translate(18.442 40.57)"><path class="a" d="M209.815,279.651l-1.249-2.317a1.792,1.792,0,0,0,1.249-1.907c0-1.516-1.011-1.993-2.26-1.993h-1.888a.387.387,0,0,0-.4.381v6.2c0,.258.315.391.62.391s.62-.133.62-.391v-2.489h.8l1.354,2.632a.488.488,0,0,0,.429.3.8.8,0,0,0,.772-.648A.258.258,0,0,0,209.815,279.651Zm-2.26-3.1h-1.049v-2.031h1.049a1.016,1.016,0,1,1,0,2.031Z" transform="translate(-205.266 -273.434)"/></g><g transform="translate(24.068 40.57)"><path class="a" d="M271.82,279.318h-2.7V277.4h1.449a.432.432,0,0,0,.391-.477c0-.257-.143-.5-.391-.5h-1.449v-1.907h2.7c.248,0,.391-.257.391-.553,0-.257-.124-.534-.391-.534h-3.395c-.277,0-.544.134-.544.391v6.189c0,.257.267.391.544.391h3.395c.267,0,.391-.277.391-.534C272.211,279.575,272.068,279.318,271.82,279.318Z" transform="translate(-267.882 -273.434)"/></g><g transform="translate(29.312 40.57)"><path class="a" d="M330.26,273.434c-.315,0-.62.114-.62.381v3.833l-1.841-3.557c-.3-.563-.477-.658-.925-.658-.315,0-.62.124-.62.391v6.189c0,.258.305.391.62.391s.62-.133.62-.391V276.18l2.05,3.833a.745.745,0,0,0,.715.391c.305,0,.62-.133.62-.391v-6.2C330.88,273.548,330.565,273.434,330.26,273.434Z" transform="translate(-326.255 -273.434)"/></g><g transform="translate(34.814 40.57)"><path class="a" d="M391.918,273.434h-4.034c-.267,0-.391.286-.391.553,0,.305.143.563.391.563h1.4v5.464c0,.257.305.391.62.391s.62-.134.62-.391V274.55h1.392c.248,0,.391-.267.391-.563C392.309,273.72,392.185,273.434,391.918,273.434Z" transform="translate(-387.493 -273.434)"/></g></g></svg>