<svg xmlns="http://www.w3.org/2000/svg" width="51.553" height="51.553" viewBox="0 0 51.553 51.553"><defs><style>.a{fill:#6c2643;}</style></defs><path class="a" d="M50.619,18.877A25.748,25.748,0,0,0,25.777,0a25.972,25.972,0,0,0-5.195.524A25.651,25.651,0,0,0,11.365,4.4,25.85,25.85,0,0,0,2.026,15.743a25.649,25.649,0,0,0-1.5,4.839,25.959,25.959,0,0,0,.7,13.055,25.666,25.666,0,0,0,3.412,6.883.777.777,0,0,0,.089.111.764.764,0,0,0,.323.192h0l.007,0a.751.751,0,0,0,.234.028H5.3a.733.733,0,0,0,.318-.089h0l.006,0a.746.746,0,0,0,.226-.19l.006-.007a.756.756,0,0,0,.159-.475v-.005A.753.753,0,0,0,5.9,39.7c-.007-.011-.015-.023-.024-.035A24.271,24.271,0,0,1,37.855,4.725l.011.006A24.355,24.355,0,0,1,50.043,25.777,24.266,24.266,0,0,1,11.925,45.7a.767.767,0,0,0-.768-.056L2.463,49.968a.676.676,0,0,1-.3.075h0a.678.678,0,0,1-.651-.654.681.681,0,0,1,.076-.3l2.992-5.951a.755.755,0,1,0-1.349-.678L.237,48.409a2.171,2.171,0,0,0,1.927,3.144h0a2.184,2.184,0,0,0,.968-.232l8.3-4.126a25.65,25.65,0,0,0,14.344,4.359,25.972,25.972,0,0,0,5.195-.524,25.651,25.651,0,0,0,9.217-3.879A25.854,25.854,0,0,0,49.528,35.81a25.892,25.892,0,0,0,1.091-16.933Zm0,0" transform="translate(0)"/><path class="a" d="M105.882,118.366a.755.755,0,0,0-.569.664,15.147,15.147,0,0,0,0,2.795.755.755,0,0,0,.569.664l1.4.35a13.451,13.451,0,0,0,.556,2.077l-1.037,1a.754.754,0,0,0-.16.859,15.246,15.246,0,0,0,1.4,2.421.757.757,0,0,0,.824.289l1.392-.4a13.356,13.356,0,0,0,1.516,1.519l-.4,1.388a.754.754,0,0,0,.29.824,15.186,15.186,0,0,0,2.422,1.4.768.768,0,0,0,.859-.161l1-1.038a13.43,13.43,0,0,0,2.073.553l.35,1.4a.754.754,0,0,0,.665.568,15.069,15.069,0,0,0,2.8,0,.757.757,0,0,0,.664-.569l.35-1.4a13.526,13.526,0,0,0,2.069-.554l1,1.037a.769.769,0,0,0,.86.16,15.112,15.112,0,0,0,2.424-1.4.757.757,0,0,0,.289-.824l-.4-1.39a13.541,13.541,0,0,0,1.512-1.511l1.388.4a.755.755,0,0,0,.824-.289,15.2,15.2,0,0,0,1.4-2.427.757.757,0,0,0-.161-.859l-1.038-1a13.234,13.234,0,0,0,.552-2.065l1.4-.35a.756.756,0,0,0,.569-.664,15.247,15.247,0,0,0,0-2.8.759.759,0,0,0-.569-.665l-1.4-.35a13.476,13.476,0,0,0-.552-2.065l1.038-1a.757.757,0,0,0,.161-.859,15.238,15.238,0,0,0-1.4-2.427.754.754,0,0,0-.824-.289l-1.388.4a13.712,13.712,0,0,0-1.512-1.512l.4-1.39a.755.755,0,0,0-.289-.822,15.187,15.187,0,0,0-2.424-1.4.771.771,0,0,0-.86.161l-1,1.037a13.313,13.313,0,0,0-2.069-.554l-.35-1.4a.757.757,0,0,0-.664-.569,15.121,15.121,0,0,0-2.8,0,.756.756,0,0,0-.664.569l-.35,1.4a13.256,13.256,0,0,0-2.073.553l-1-1.038a.752.752,0,0,0-.859-.161,15.181,15.181,0,0,0-2.423,1.4.755.755,0,0,0-.289.824l.4,1.388a13.523,13.523,0,0,0-1.518,1.517l-1.39-.4a.756.756,0,0,0-.824.289,15.2,15.2,0,0,0-1.4,2.421.754.754,0,0,0,.16.859l1.037,1a13.434,13.434,0,0,0-.556,2.077Zm2.249.994a.753.753,0,0,0,.564-.625,11.8,11.8,0,0,1,.725-2.714.753.753,0,0,0-.175-.824l-1-.968a13.875,13.875,0,0,1,.73-1.261l1.341.384a.77.77,0,0,0,.8-.259,11.974,11.974,0,0,1,1.987-1.985.752.752,0,0,0,.259-.8l-.384-1.341a13.729,13.729,0,0,1,1.263-.729l.97,1a.75.75,0,0,0,.822.176,11.822,11.822,0,0,1,2.71-.723.75.75,0,0,0,.625-.564l.338-1.351a13.315,13.315,0,0,1,1.461,0l.338,1.351a.753.753,0,0,0,.625.565,11.827,11.827,0,0,1,2.705.724.766.766,0,0,0,.824-.175l.969-1a13.982,13.982,0,0,1,1.265.732l-.384,1.342-.007.024a.759.759,0,0,0,.265.776,12.077,12.077,0,0,1,1.978,1.98.769.769,0,0,0,.8.258l1.341-.383a13.534,13.534,0,0,1,.732,1.266l-1,.969a.761.761,0,0,0-.176.824,11.76,11.76,0,0,1,.722,2.7.751.751,0,0,0,.564.625l1.351.338c.013.245.02.492.02.732s-.007.486-.02.732c-1.516.379-1.333.331-1.424.36h0a.75.75,0,0,0-.478.541,0,0,0,0,1,0,0,12.036,12.036,0,0,1-.716,2.721.1.1,0,0,0-.007.017.759.759,0,0,0,.167.846l1,.969a13.452,13.452,0,0,1-.732,1.267l-1.341-.384a.77.77,0,0,0-.8.259,11.926,11.926,0,0,1-1.978,1.98.753.753,0,0,0-.258.8l.384,1.342a14,14,0,0,1-1.266.732l-.968-1a.752.752,0,0,0-.824-.176,11.838,11.838,0,0,1-2.706.725.751.751,0,0,0-.625.564l-.338,1.352a13.916,13.916,0,0,1-1.461,0l-.339-1.351a.75.75,0,0,0-.625-.564,11.8,11.8,0,0,1-2.71-.723.771.771,0,0,0-.823.176l-.97,1a13.811,13.811,0,0,1-1.263-.729l.383-1.341a.751.751,0,0,0-.26-.8,12.106,12.106,0,0,1-1.989-1.99.756.756,0,0,0-.8-.254l-1.341.383a13.9,13.9,0,0,1-.73-1.261l1-.969a.751.751,0,0,0,.175-.824,11.8,11.8,0,0,1-.725-2.714.754.754,0,0,0-.564-.625l-1.352-.338c-.012-.243-.019-.488-.019-.73s.007-.485.019-.728Zm0,0" transform="translate(-94.652 -94.651)"/><path class="a" d="M186.677,194.449h.005a7.76,7.76,0,1,0-4.2-14.279.755.755,0,1,0,.818,1.27,6.245,6.245,0,1,1-1.883,1.9.755.755,0,1,0-1.275-.809,7.761,7.761,0,0,0,6.538,11.922Zm0,0" transform="translate(-160.913 -160.913)"/><path class="a" d="M217.775,222.059a4.279,4.279,0,1,0-4.279-4.279A4.284,4.284,0,0,0,217.775,222.059Zm0-7.048a2.769,2.769,0,1,1-2.769,2.769A2.772,2.772,0,0,1,217.775,215.01Zm0,0" transform="translate(-191.999 -192.003)"/></svg>